<?xml version="1.0" standalone="no"?>
<!DOCTYPE svg PUBLIC "-//W3C//DTD SVG 20010904//EN"
 "http://www.w3.org/TR/2001/REC-SVG-20010904/DTD/svg10.dtd">
<svg version="1.0" xmlns="http://www.w3.org/2000/svg"
 width="821.000000pt" height="692.000000pt" viewBox="0 0 821.000000 692.000000"
 preserveAspectRatio="xMidYMid meet">

<g transform="translate(0.000000,692.000000) scale(0.100000,-0.100000)"
fill="#000000" stroke="none">
<path d="M0 3460 l0 -3460 4105 0 4105 0 0 3460 0 3460 -4105 0 -4105 0 0
-3460z m4186 2873 c88 -35 165 -107 210 -197 124 -251 -24 -536 -306 -588
-171 -32 -378 85 -440 249 -111 288 109 591 410 566 36 -3 92 -16 126 -30z
m-1631 -628 c131 -35 224 -109 278 -222 30 -64 32 -75 32 -178 0 -105 -2 -114
-33 -177 -60 -122 -173 -206 -308 -228 -139 -24 -299 40 -382 152 -55 73 -69
104 -83 182 -25 132 18 264 115 361 104 104 245 145 381 110z m3185 -14 c78
-29 147 -86 196 -160 130 -193 72 -451 -128 -577 -22 -14 -76 -34 -119 -45
-67 -17 -89 -19 -144 -10 -117 18 -228 83 -284 166 -56 83 -74 143 -74 240 0
100 17 155 73 238 100 149 307 213 480 148z m-1507 -908 c428 -82 766 -422
843 -848 18 -103 18 -299 -1 -395 -42 -217 -140 -398 -303 -560 -123 -122
-136 -151 -137 -290 0 -98 2 -110 32 -172 81 -172 261 -270 440 -240 57 10 73
17 124 62 254 221 448 510 549 819 62 187 83 309 95 554 8 147 30 203 109 283
80 80 149 108 261 108 149 -1 263 -71 327 -202 l33 -67 0 -170 c-1 -270 -40
-487 -140 -790 -38 -116 -184 -423 -221 -466 -8 -8 -14 -18 -14 -22 0 -3 -27
-45 -60 -94 -322 -476 -806 -841 -1345 -1013 -829 -264 -1720 -102 -2405 439
-111 87 -309 283 -398 393 -348 430 -562 999 -566 1508 -1 163 -1 166 27 218
41 78 97 134 173 173 61 30 74 33 158 34 83 0 97 -3 158 -33 82 -40 158 -120
187 -195 12 -32 22 -94 26 -153 33 -486 203 -881 517 -1202 136 -139 178 -171
243 -184 72 -14 187 3 255 37 181 93 270 304 210 499 -19 59 -29 73 -106 148
-147 143 -250 314 -305 508 -21 76 -24 105 -24 270 0 165 3 194 24 270 113
403 435 702 833 774 146 27 259 27 401 -1z"/>
<path d="M3903 4136 c-66 -21 -124 -60 -177 -115 -92 -99 -130 -236 -102 -363
20 -91 59 -159 125 -221 165 -155 425 -147 580 18 161 170 153 430 -17 586
-86 79 -146 103 -267 106 -65 2 -115 -2 -142 -11z"/>
</g>
</svg>
